
<!-- Heroicon name: exclamation-circle -->
<svg xmlns="http://www.w3.org/2000/svg" viewBox="0 0 60 60" fill="currentColor"
    class="h-80 w-80 text-gray-400">
    <g transform="translate(20, 20)">
        <path fill-rule="evenodd"
            d="M18 10a8 8 0 11-16 0 8 8 0 0116 0zm-7 4a1 1 0 11-2 0 1 1 0 012 0zm-1-9a1 1 0 00-1 1v4a1 1 0 102 0V6a1 1 0 00-1-1z"
            clip-rule="evenodd"></path>
    </g>
    <circle cx="30" cy="30" r="10" stroke-width=".25" stroke="currentColor" fill="none"
        stroke-dasharray="1">
    </circle>
    <circle cx="30" cy="30" r="13" stroke-width=".25" stroke="currentColor" fill="none"
        stroke-dasharray="1" stroke-opacity=".5"></circle>
    <circle cx="30" cy="30" r="17" stroke-width=".25" stroke="currentColor" fill="none"
        stroke-dasharray="1" stroke-opacity=".25"></circle>
    <circle cx="30" cy="30" r="23" stroke-width=".25" stroke="currentColor" fill="none"
        stroke-dasharray="1" stroke-opacity=".1"></circle>
    <circle cx="30" cy="30" r="30" stroke-width=".25" stroke="currentColor" fill="none"
        stroke-dasharray="1" stroke-opacity=".05"></circle>
</svg>